
<svg xmlns="http://www.w3.org/2000/svg" xmlns:xlink="http://www.w3.org/1999/xlink" x="0px" y="0px" viewBox="0 0 512 512" >
	<path d="M129.3,174.5L8.8,294.9C3.2,300.5,0,308.3,0,316.2c0,7.9,3.2,15.7,8.8,21.3L129.3,458c11.8,11.8,30.8,11.8,42.6,0
		c11.8-11.8,11.8-30.8,0-42.6l-99.2-99.2l99.2-99.2c11.8-11.8,11.8-30.8,0-42.6C160.1,162.7,141.1,162.7,129.3,174.5L129.3,174.5z
		 M30.1,346.4h331.3c83.2,0,150.6-67.4,150.6-150.6c0-83.2-67.4-150.6-150.6-150.6h-30.1c-16.6,0-30.1,13.5-30.1,30.1
		c0,16.6,13.5,30.1,30.1,30.1h30.1c49.9,0.1,90.3,40.5,90.4,90.4c-0.1,49.9-40.5,90.3-90.4,90.4H30.1C13.5,286.1,0,299.6,0,316.2
		C0,332.9,13.5,346.4,30.1,346.4L30.1,346.4z"/>
</svg>
