<?xml version="1.0" standalone="no"?>
<!DOCTYPE svg PUBLIC "-//W3C//DTD SVG 20010904//EN"
 "http://www.w3.org/TR/2001/REC-SVG-20010904/DTD/svg10.dtd">
<svg version="1.0" xmlns="http://www.w3.org/2000/svg"
 width="210.000000pt" height="210.000000pt" viewBox="0 0 210.000000 210.000000"
 preserveAspectRatio="xMidYMid meet">
<metadata>
Created by potrace 1.14, written by Peter Selinger 2001-2017
</metadata>
<g transform="translate(0.000000,210.000000) scale(0.100000,-0.100000)"
fill="#000000" stroke="none">
<path d="M960 2063 c-14 -3 -56 -20 -95 -38 -64 -31 -100 -64 -410 -374 -341
-341 -380 -387 -408 -482 -18 -60 -21 -155 -6 -215 27 -112 52 -143 417 -507
320 -319 352 -349 417 -379 65 -30 78 -32 176 -33 101 0 108 1 180 37 68 34
101 63 412 375 186 186 351 359 367 385 82 132 79 324 -8 450 -46 68 -677 694
-729 725 -93 54 -206 75 -313 56z m190 -200 c53 -23 684 -656 710 -711 29 -60
28 -146 0 -203 -15 -29 -132 -155 -339 -363 -347 -349 -368 -366 -472 -366
-99 0 -123 19 -471 367 -346 347 -363 369 -359 468 3 97 25 125 378 476 316
314 330 327 383 341 62 17 119 14 170 -9z"/>
<path d="M699 1549 c-24 -24 -22 -14 -24 -136 -1 -68 2 -103 9 -104 14 -1 157
-1 173 0 6 1 13 16 15 34 2 25 7 31 22 29 10 -2 23 2 27 10 5 7 9 8 9 2 0 -7
45 -11 129 -11 135 -1 177 -9 248 -50 70 -40 134 -127 148 -199 9 -48 7 -127
-4 -162 -29 -95 -106 -178 -198 -212 -44 -16 -78 -20 -183 -20 l-130 0 -1 -27
c-3 -92 -1 -151 4 -160 5 -7 57 -10 150 -8 161 4 230 21 323 80 366 235 298
784 -116 926 -60 21 -85 23 -324 25 -241 2 -260 0 -277 -17z"/>
<path d="M695 1251 c-11 -2 -25 -11 -32 -20 -21 -27 -93 -152 -93 -162 0 -5
23 -9 50 -9 33 0 50 -4 51 -12 1 -7 2 -117 3 -245 1 -279 -4 -267 114 -268
l77 0 2 100 c1 55 2 126 3 158 l0 57 78 0 77 0 48 68 47 67 -122 3 c-70 1
-125 7 -129 13 -3 6 -4 21 -1 35 l4 24 152 0 151 1 67 91 c38 50 66 93 63 96
-5 5 -583 9 -610 3z"/>
</g>
</svg>
